<?xml version="1.0" encoding="UTF-8"?>
<!DOCTYPE svg PUBLIC "-//W3C//DTD SVG 1.1//EN" "http://www.w3.org/Graphics/SVG/1.1/DTD/svg11.dtd">
<svg xmlns="http://www.w3.org/2000/svg" version="1.1" width="411px" height="236px" style="shape-rendering:geometricPrecision; text-rendering:geometricPrecision; image-rendering:optimizeQuality; fill-rule:evenodd; clip-rule:evenodd" xmlns:xlink="http://www.w3.org/1999/xlink">
<g><path style="opacity:1" fill="#8565fe" d="M 159.5,49.5 C 180.96,49.1196 190.127,59.4529 187,80.5C 185.477,84.8521 182.977,88.5188 179.5,91.5C 183.894,95.1185 188.727,98.1185 194,100.5C 213.234,88.7985 232.401,76.9651 251.5,65C 257.089,63.4547 260.422,65.4547 261.5,71C 260.97,73.2073 259.97,75.2073 258.5,77C 231.497,93.1661 204.83,109.833 178.5,127C 189.414,136.183 191.247,147.017 184,159.5C 175.942,168.521 166.109,171.021 154.5,167C 140.349,157.217 137.849,145.05 147,130.5C 158.167,123.333 169.333,116.167 180.5,109C 171.326,102.577 161.66,96.91 151.5,92C 138.594,79.6286 138.261,66.9619 150.5,54C 153.592,52.4541 156.592,50.9541 159.5,49.5 Z M 160.5,63.5 C 169.93,62.1011 174.43,66.1011 174,75.5C 169.524,83.2135 163.858,84.2135 157,78.5C 154.206,72.4076 155.373,67.4076 160.5,63.5 Z M 160.5,136.5 C 168.618,134.806 173.285,137.973 174.5,146C 174.056,151.777 170.889,154.944 165,155.5C 157.283,154.393 154.283,150.06 156,142.5C 156.979,140.032 158.479,138.032 160.5,136.5 Z"/></g>
<g><path style="opacity:1" fill="#8666fe" d="M 218.5,116.5 C 230.971,124.573 243.638,132.406 256.5,140C 262.029,143.743 262.695,148.076 258.5,153C 256.167,153.667 253.833,153.667 251.5,153C 236.833,144 222.167,135 207.5,126C 206.289,125.107 206.289,124.274 207.5,123.5C 211.401,121.392 215.067,119.059 218.5,116.5 Z"/></g>
<g><path style="opacity:1" fill="#777777" d="M 282.5,180.5 C 283.708,179.218 285.042,179.218 286.5,180.5C 286.376,181.107 286.043,181.44 285.5,181.5C 284.791,180.596 283.791,180.263 282.5,180.5 Z"/></g>
<g><path style="opacity:1" fill="#9678fe" d="M 116.5,179.5 C 120.584,179.043 124.417,179.71 128,181.5C 128.896,184.025 128.396,186.192 126.5,188C 129.059,191.075 129.059,194.075 126.5,197C 122.848,197.499 119.182,197.665 115.5,197.5C 115.211,191.409 115.545,185.409 116.5,179.5 Z M 120.5,183.5 C 121.5,183.5 122.5,183.5 123.5,183.5C 123.5,184.5 123.5,185.5 123.5,186.5C 122.5,186.5 121.5,186.5 120.5,186.5C 120.5,185.5 120.5,184.5 120.5,183.5 Z M 120.5,190.5 C 125.116,191.041 125.449,192.374 121.5,194.5C 120.571,193.311 120.238,191.978 120.5,190.5 Z"/></g>
<g><path style="opacity:1" fill="#9173fe" d="M 136.5,179.5 C 139.079,179.083 141.246,179.75 143,181.5C 144.118,186.808 145.618,191.975 147.5,197C 145.866,197.494 144.199,197.66 142.5,197.5C 142.5,196.5 142.5,195.5 142.5,194.5C 140.5,194.5 138.5,194.5 136.5,194.5C 136.5,195.5 136.5,196.5 136.5,197.5C 135.167,197.5 133.833,197.5 132.5,197.5C 133.519,191.426 134.852,185.426 136.5,179.5 Z M 138.5,185.5 C 140.561,186.751 140.894,188.418 139.5,190.5C 138.548,188.955 138.215,187.288 138.5,185.5 Z"/></g>
<g><path style="opacity:1" fill="#8d6efe" d="M 151.5,179.5 C 155.584,179.043 159.417,179.71 163,181.5C 164.004,184.993 163.504,188.159 161.5,191C 162.669,193.007 163.335,195.173 163.5,197.5C 162.022,197.762 160.689,197.429 159.5,196.5C 156.794,189.542 155.461,189.875 155.5,197.5C 154.167,197.5 152.833,197.5 151.5,197.5C 151.5,191.5 151.5,185.5 151.5,179.5 Z M 155.5,183.5 C 156.833,183.5 158.167,183.5 159.5,183.5C 159.5,184.833 159.5,186.167 159.5,187.5C 158.167,187.5 156.833,187.5 155.5,187.5C 155.5,186.167 155.5,184.833 155.5,183.5 Z"/></g>
<g><path style="opacity:1" fill="#ad98fe" d="M 178.5,180.5 C 175.5,180.5 172.5,180.5 169.5,180.5C 169.5,186.167 169.5,191.833 169.5,197.5C 168.51,191.69 168.177,185.69 168.5,179.5C 172.042,179.187 175.375,179.521 178.5,180.5 Z"/></g>
<g><path style="opacity:1" fill="#8b6cfe" d="M 178.5,180.5 C 182.115,182.631 182.448,185.298 179.5,188.5C 181.762,191.087 181.929,193.754 180,196.5C 176.606,197.456 173.106,197.789 169.5,197.5C 169.5,191.833 169.5,186.167 169.5,180.5C 172.5,180.5 175.5,180.5 178.5,180.5 Z M 172.5,183.5 C 173.833,183.5 175.167,183.5 176.5,183.5C 176.5,184.5 176.5,185.5 176.5,186.5C 175.167,186.5 173.833,186.5 172.5,186.5C 172.5,185.5 172.5,184.5 172.5,183.5 Z M 172.5,190.5 C 173.833,190.5 175.167,190.5 176.5,190.5C 174.838,195.536 173.505,195.536 172.5,190.5 Z"/></g>
<g><path style="opacity:1" fill="#9476fe" d="M 190.5,183.5 C 189.566,184.568 189.232,185.901 189.5,187.5C 191.5,187.5 193.5,187.5 195.5,187.5C 195.5,188.5 195.5,189.5 195.5,190.5C 193.833,190.5 192.167,190.5 190.5,190.5C 190.5,191.833 190.5,193.167 190.5,194.5C 192.5,194.5 194.5,194.5 196.5,194.5C 196.5,195.5 196.5,196.5 196.5,197.5C 192.833,197.5 189.167,197.5 185.5,197.5C 185.334,191.824 185.501,186.157 186,180.5C 189.394,179.544 192.894,179.211 196.5,179.5C 196.5,180.833 196.5,182.167 196.5,183.5C 194.5,183.5 192.5,183.5 190.5,183.5 Z"/></g>
<g><path style="opacity:1" fill="#bba9fd" d="M 210.5,180.5 C 207.833,180.5 205.167,180.5 202.5,180.5C 202.5,186.167 202.5,191.833 202.5,197.5C 201.51,191.69 201.177,185.69 201.5,179.5C 204.713,179.19 207.713,179.523 210.5,180.5 Z"/></g>
<g><path style="opacity:1" fill="#8d6efe" d="M 210.5,180.5 C 212.017,180.511 213.184,181.177 214,182.5C 214.798,185.711 214.298,188.711 212.5,191.5C 213.167,193.167 213.833,194.833 214.5,196.5C 213.277,197.614 211.944,197.781 210.5,197C 207.961,189.611 206.628,189.777 206.5,197.5C 205.167,197.5 203.833,197.5 202.5,197.5C 202.5,191.833 202.5,186.167 202.5,180.5C 205.167,180.5 207.833,180.5 210.5,180.5 Z M 206.5,183.5 C 207.5,183.5 208.5,183.5 209.5,183.5C 209.5,184.833 209.5,186.167 209.5,187.5C 208.5,187.5 207.5,187.5 206.5,187.5C 206.5,186.167 206.5,184.833 206.5,183.5 Z"/></g>
<g><path style="opacity:1" fill="#282828" d="M 220.5,179.5 C 224.584,179.043 228.417,179.71 232,181.5C 231.919,185.241 232.085,188.908 232.5,192.5C 232.61,194.374 231.944,195.874 230.5,197C 226.848,197.499 223.182,197.665 219.5,197.5C 219.211,191.409 219.545,185.409 220.5,179.5 Z M 224.5,183.5 C 225.5,183.5 226.5,183.5 227.5,183.5C 227.5,184.5 227.5,185.5 227.5,186.5C 226.5,186.5 225.5,186.5 224.5,186.5C 224.5,185.5 224.5,184.5 224.5,183.5 Z M 224.5,190.5 C 227.534,190.183 228.534,191.183 227.5,193.5C 226.5,193.5 225.5,193.5 224.5,193.5C 224.5,192.5 224.5,191.5 224.5,190.5 Z"/></g>
<g><path style="opacity:1" fill="#2a2a2a" d="M 239.5,179.5 C 247.407,177.597 251.074,180.597 250.5,188.5C 251.397,197.04 247.73,199.873 239.5,197C 235.594,191.25 235.594,185.416 239.5,179.5 Z M 241.5,183.5 C 242.833,183.5 244.167,183.5 245.5,183.5C 245.5,186.833 245.5,190.167 245.5,193.5C 244.167,193.5 242.833,193.5 241.5,193.5C 241.5,190.167 241.5,186.833 241.5,183.5 Z"/></g>
<g><path style="opacity:1" fill="#2a2a2a" d="M 257.5,179.5 C 265.407,177.597 269.074,180.597 268.5,188.5C 269.397,197.04 265.73,199.873 257.5,197C 253.594,191.25 253.594,185.416 257.5,179.5 Z M 259.5,183.5 C 260.833,183.5 262.167,183.5 263.5,183.5C 263.5,186.833 263.5,190.167 263.5,193.5C 262.167,193.5 260.833,193.5 259.5,193.5C 259.5,190.167 259.5,186.833 259.5,183.5 Z"/></g>
<g><path style="opacity:1" fill="#1a1a1a" d="M 282.5,180.5 C 283.791,180.263 284.791,180.596 285.5,181.5C 284.906,183.855 283.906,186.022 282.5,188C 283.697,190.894 285.03,193.727 286.5,196.5C 284.833,197.833 283.167,197.833 281.5,196.5C 278.157,188.189 276.824,188.522 277.5,197.5C 276.167,197.5 274.833,197.5 273.5,197.5C 273.5,191.5 273.5,185.5 273.5,179.5C 274.833,179.5 276.167,179.5 277.5,179.5C 277.337,181.857 277.503,184.19 278,186.5C 279.363,184.316 280.863,182.316 282.5,180.5 Z"/></g>
<g><path style="opacity:0.902" fill="#b9a8fe" d="M 190.5,183.5 C 190.5,184.5 190.5,185.5 190.5,186.5C 192.415,186.216 194.081,186.549 195.5,187.5C 193.5,187.5 191.5,187.5 189.5,187.5C 189.232,185.901 189.566,184.568 190.5,183.5 Z"/></g>
<g><path style="opacity:0.925" fill="#c1b1fd" d="M 206.5,183.5 C 206.5,184.833 206.5,186.167 206.5,187.5C 207.5,187.5 208.5,187.5 209.5,187.5C 208.432,188.434 207.099,188.768 205.5,188.5C 205.216,186.585 205.549,184.919 206.5,183.5 Z"/></g>
<g><path style="opacity:1" fill="#747474" d="M 224.5,190.5 C 224.5,191.5 224.5,192.5 224.5,193.5C 225.5,193.5 226.5,193.5 227.5,193.5C 226.432,194.434 225.099,194.768 223.5,194.5C 223.232,192.901 223.566,191.568 224.5,190.5 Z"/></g>
</svg>
